<svg xmlns="http://www.w3.org/2000/svg" viewBox="0 0 55.25 55.25"><path d="M52.618 2.63c-3.5-3.508-9.22-3.508-12.73 0L3.827 38.693c-.017.017-.027.038-.042.056-.02.024-.04.05-.058.076-.053.074-.094.153-.125.24-.01.026-.022.05-.03.075-.003.01-.01.02-.012.03L.026 54.02a.99.99 0 0 0-.022.202c0 .013-.004.025-.004.038.001.114.026.225.065.332a.89.89 0 0 0 .03.071c.05.107.1.2.196.296.095.095.207.168.328.218s.25.075.38.075c.077 0 .155-.01.23-.027l14.85-3.535c.027-.006.05-.02.077-.03.034-.01.066-.024.1-.04.072-.033.14-.074.2-.123.024-.02.05-.033.072-.054.008-.008.018-.012.026-.02L52.617 15.36c3.5-3.5 3.5-9.22.001-12.73zm-1.414 1.414c2.488 2.49 2.7 6.397.65 9.137l-9.787-9.787c2.74-2.05 6.65-1.838 9.137.65zm-4.95 14.85l-9.9-9.9 1.414-1.414 9.9 9.9-1.414 1.414zM4.96 50.288a1 1 0 0 0-1.414 0l-.757.757 2.554-10.728 4.422-.49-.57 5.122c-.004.038.01.073.01.1s-.014.072-.01.1.02.06.028.092c.012.058.03.11.05.165.026.065.057.124.095.18.03.046.062.087.1.127a1 1 0 0 0 .157.134c.045.03.088.06.138.084a1.04 1.04 0 0 0 .207.066c.038.01.07.03.108.035a.98.98 0 0 0 .109.006h.003a1 1 0 0 0 .11-.006l5.122-.57-.49 4.422-10.73 2.554.757-.757a1 1 0 0 0 0-1.414zm12.55-5.48L39.89 22.43a1 1 0 0 0-1.414-1.414l-22.378 22.38-4.773.53.53-4.773 22.38-22.378a1 1 0 0 0-1.414-1.414L10.44 37.738l-3.183.354L34.94 10.41l9.9 9.9-27.683 27.683.354-3.183zm31.57-28.742l-9.9-9.9 1.415-1.415 9.9 9.9-1.415 1.415z"/></svg>