<svg xmlns="http://www.w3.org/2000/svg" xmlns:xlink="http://www.w3.org/1999/xlink" height="683" viewBox="0 -31 512 512" width="683"><path fill="currentColor" d="M164.96 300.004h.023c.02 0 .04-.004.06-.004H437c6.695 0 12.582-4.44 14.422-10.88l60-210c1.293-4.527.387-9.395-2.445-13.152S501.707 60 497 60H130.367l-10.723-48.254C118.117 4.883 112.03 0 105 0H15C6.715 0 0 6.715 0 15s6.715 15 15 15h77.97l54.156 243.71C131.184 280.64 120 296.535 120 315c0 24.813 20.188 45 45 45h272c8.285 0 15-6.715 15-15s-6.715-15-15-15H165c-8.27 0-15-6.73-15-15 0-8.258 6.707-14.977 14.96-14.996zM477.113 90l-51.43 180H177.03l-40-180zm0 0"/><use xlink:href="#B"/><use xlink:href="#B" x="212"/><defs ><path fill="currentColor" id="B" d="M150 405c0 24.813 20.188 45 45 45s45-20.187 45-45-20.187-45-45-45-45 20.188-45 45zm45-15c8.27 0 15 6.73 15 15s-6.73 15-15 15-15-6.73-15-15 6.73-15 15-15zm0 0"/></defs></svg>
