<svg xmlns="http://www.w3.org/2000/svg" width="486" height="486" viewBox="0 0 485.213 485.213"><path fill="currentColor" d="M471.882 407.567L360.567 296.243a214.26 214.26 0 0 1-64.33 64.32L407.56 471.888c17.772 17.768 46.587 17.768 64.32 0 17.773-17.74 17.773-46.554.001-64.32zM363.9 181.955C363.9 81.473 282.44 0 181.956 0S.001 81.473.001 181.955s81.473 181.95 181.955 181.95 181.953-81.47 181.953-181.95zm-181.953 136.46c-75.252 0-136.465-61.208-136.465-136.46S106.704 45.5 181.956 45.5s136.468 61.213 136.468 136.465-61.218 136.46-136.468 136.46zm-106.14-136.46h30.322c0-41.803 34.014-75.814 75.816-75.814V75.816c-58.517 0-106.138 47.62-106.138 106.14z"/></svg>
