<svg xmlns="http://www.w3.org/2000/svg" viewBox="0 0 578.106 578.106"><path d="M577.83 456.128c1.225 9.385-1.635 17.545-8.568 24.48l-81.396 80.78c-3.672 4.08-8.465 7.55-14.38 10.404s-11.73 4.693-17.44 5.508c-.408 0-1.635.105-3.676.31s-4.69.307-7.953.307c-7.754 0-20.3-1.326-37.64-3.98s-38.555-9.182-63.645-19.584c-25.096-10.404-53.553-26.012-85.376-46.818s-65.688-49.367-101.592-85.68c-28.56-28.152-52.224-55.08-70.992-80.783s-33.864-49.47-45.288-71.3S19.9 228.158 14.178 210.4 4.6 177.362 2.55 164.5-.306 141.56.102 134.216l.612-12.24c.816-5.712 2.652-11.526 5.508-17.442s6.324-10.7 10.404-14.382L98.022 8.756c5.712-5.712 12.24-8.568 19.584-8.568 5.304 0 9.996 1.53 14.076 4.6s7.548 6.834 10.404 11.322l65.484 124.236c3.672 6.528 4.692 13.668 3.06 21.42s-5.1 14.28-10.404 19.584l-29.988 29.988c-.816.816-1.53 2.142-2.142 3.978s-.918 3.366-.918 4.6c1.632 8.568 5.304 18.36 11.016 29.376 4.896 9.792 12.444 21.726 22.644 35.802s24.684 30.293 43.452 48.653c18.36 18.77 34.68 33.354 48.96 43.76 14.277 10.4 26.215 18.053 35.803 22.95s16.932 7.854 22.03 8.87l7.648 1.53c.816 0 2.145-.307 3.98-.918s3.162-1.326 3.98-2.143l34.883-35.496c7.348-6.527 15.912-9.79 25.705-9.79 6.938 0 12.443 1.223 16.523 3.672h.61l118.115 69.768c8.57 5.308 13.67 12.038 15.303 20.198z" fill="currentColor"/></svg>
