<svg xmlns="http://www.w3.org/2000/svg" width="431" height="431" viewBox="0 0 430.114 430.114"><path fill="currentColor" d="M356.208 107.05c-1.53-5.738-4.64-11.852-6.94-17.205C321.746 23.704 261.61 0 213.055 0c-65 0-136.592 43.586-146.15 133.427v18.355c0 .766.264 7.647.64 11.09 5.358 42.816 39.143 88.32 64.375 131.136l83.22 136.106 51.17-87.933c4.583-8.415 9.903-16.825 14.49-24.857 3.058-5.348 8.9-10.696 11.57-15.672 27.145-49.7 70.838-99.782 70.838-149.104v-20.262c.001-5.347-6.627-24.08-7-25.234zm-141.963 92.142c-19.107 0-40.02-9.554-50.344-35.94-1.538-4.2-1.414-12.617-1.414-13.388v-11.852c0-33.636 28.56-48.932 53.406-48.932 30.588 0 54.245 24.472 54.245 55.06s-25.305 55.05-55.893 55.05z"/></svg>
