<svg xmlns="http://www.w3.org/2000/svg" width="549" height="549" viewBox="0 0 548.358 548.358"><path fill="currentColor" d="M545.45 400.298l-1.858-3.57c-9.514-17.135-27.695-38.167-54.532-63.102l-.567-.57-.284-.28-.287-.287h-.288c-12.18-11.61-19.893-19.418-23.123-23.415-5.9-7.614-7.234-15.32-4.004-23.13 2.282-5.9 10.854-18.36 25.696-37.397l18.556-24.267c32.93-43.78 47.208-71.756 42.828-83.94l-1.7-2.847c-1.143-1.714-4.093-3.282-8.846-4.712-4.764-1.427-10.853-1.663-18.278-.712l-82.224.568c-1.332-.472-3.234-.428-5.712.144l-3.713.86-1.43.715-1.136.86c-.952.568-2 1.567-3.142 2.995-1.137 1.423-2.088 3.093-2.848 4.996-8.952 23.03-19.13 44.444-30.553 64.238-7.043 11.803-13.51 22.032-19.418 30.693-5.9 8.658-10.848 15.037-14.842 19.126-4 4.093-7.6 7.372-10.852 9.85s-5.708 3.525-7.42 3.142l-4.86-1.143c-2.663-1.714-4.805-4.045-6.42-6.995-1.622-2.95-2.714-6.663-3.285-11.136s-.904-8.326-1-11.563c-.09-3.233-.048-7.806.145-13.706l.287-11.99c0-7.234.14-15.085.424-23.555l.716-20.125c.194-4.95.284-10.185.284-15.705s-.336-9.85-1-12.99c-.656-3.138-1.663-6.184-3-9.137-1.335-2.95-3.29-5.232-5.853-6.852-2.57-1.618-5.763-2.902-9.564-3.856-10.09-2.283-22.936-3.518-38.547-3.7-35.4-.38-58.148 1.906-68.236 6.855-3.997 2.09-7.614 4.948-10.848 8.562-3.427 4.19-3.905 6.475-1.43 6.85 11.422 1.71 19.508 5.804 24.267 12.275l1.715 3.43c1.334 2.474 2.666 6.854 4 13.134s2.2 13.227 2.568 20.837c.95 13.897.95 25.793 0 35.69s-1.853 17.607-2.712 23.127-2.143 9.993-3.855 13.418-2.856 5.52-3.428 6.28-1.047 1.24-1.425 1.427c-2.474.948-5.047 1.43-7.7 1.43s-5.9-1.334-9.707-4-7.754-6.328-11.847-10.992-8.71-11.184-13.85-19.558-10.467-18.27-15.987-29.69l-4.567-8.282c-2.855-5.328-6.755-13.086-11.704-23.267s-9.33-20.037-13.134-29.554c-1.52-3.997-3.806-7.04-6.85-9.134l-1.43-.86c-.95-.76-2.475-1.567-4.567-2.427a30.3 30.3 0 0 0-6.567-1.854l-78.23.568c-7.994 0-13.418 1.81-16.274 5.428l-1.143 1.71c-.57.953-.86 2.475-.86 4.57s.57 4.664 1.714 7.707c11.42 26.84 23.84 52.725 37.257 77.66s25.078 45.02 34.973 60.237c9.897 15.23 19.985 29.602 30.264 43.112s17.083 22.176 20.412 25.98c3.333 3.812 5.95 6.662 7.854 8.565l7.14 6.85c4.568 4.57 11.276 10.04 20.127 16.416s18.654 12.66 29.408 18.85c10.756 6.18 23.27 11.225 37.546 15.126s28.17 5.472 41.684 4.716h32.834c6.66-.575 11.704-2.67 15.133-6.283l1.136-1.43c.764-1.136 1.48-2.9 2.14-5.276.668-2.38 1-5 1-7.85-.195-8.183.428-15.558 1.852-22.124s3.045-11.513 4.86-14.846 3.86-6.14 6.136-8.418c2.282-2.283 3.908-3.666 4.862-4.142.948-.48 1.705-.804 2.276-1 4.568-1.522 9.944-.048 16.136 4.43s12 9.996 17.418 16.56c5.425 6.57 11.943 13.94 19.555 22.124S407.99 414.997 413.7 419l5.708 3.426c3.812 2.286 8.76 4.38 14.853 6.283 6.08 1.902 11.41 2.378 15.984 1.427l73.087-1.14c7.23 0 12.854-1.197 16.844-3.572 3.998-2.38 6.373-5 7.14-7.85s.805-6.092.145-9.712c-.677-3.61-1.344-6.136-2.008-7.563z"/></svg>
